Coordinates
version=1
nRows=9
nColumns=24
inDegrees=yes

Units are S.I. units (second, meters, Newtons, ...)
Angles are in degrees.

endheader
time	pelvis_tilt	pelvis_list	pelvis_rotation	pelvis_tx	pelvis_ty	pelvis_tz	hip_flexion_r	hip_adduction_r	hip_rotation_r	knee_angle_r	ankle_angle_r	subtalar_angle_r	mtp_angle_r	hip_flexion_l	hip_adduction_l	hip_rotation_l	knee_angle_l	ankle_angle_l	subtalar_angle_l	mtp_angle_l	lumbar_extension	lumbar_bending	lumbar_rotation
      4.46000000	      4.59404934	      2.54112272	      4.80491493	      0.09055904	      0.92170819	     -0.16100670	     15.14935849	     -1.97422487	    -10.33388940	      0.52232997	      9.13780904	     12.72916356	      0.00000000	    -22.74382414	      5.44118180	     13.14941494	     -0.68616646	     12.44344063	     -6.98272147	      0.00000000	    -27.72828033	     -2.96840281	     -9.07975386
      4.47000000	      4.81145786	      2.73574570	      4.87675879	      0.10310306	      0.92113032	     -0.16012937	     14.66170330	     -1.95476758	    -10.80024926	      1.00687620	      9.40691822	     13.38549025	      0.00000000	    -23.12436766	      5.52921991	     12.19605837	     -1.97239867	     12.95075359	     -5.24505061	      0.00000000	    -27.98538163	     -3.23701753	     -8.99623453
      4.48000000	      5.01414210	      2.84954480	      4.91179232	      0.11584247	      0.92069727	     -0.15938628	     14.22209125	     -1.85966017	    -11.07819972	      1.03458604	      9.41841679	     13.34356686	      0.00000000	    -23.39823775	      5.55562112	     11.16973490	     -3.40708856	     13.29082759	     -3.62223319	      0.00000000	    -28.19243659	     -3.39412103	     -8.84771743
      4.49000000	      5.20245267	      2.86259904	      4.91860597	      0.12884178	      0.92040265	     -0.15876412	     13.80120491	     -1.67020332	    -11.12748847	      0.70556214	      9.07565214	     12.63713826	      0.00000000	    -23.58788613	      5.48633429	     10.15381847	     -4.95100146	     13.43211026	     -2.13776556	      0.00000000	    -28.33022869	     -3.41901589	     -8.61584366
      4.50000000	      5.39669342	      2.80711012	      4.93045213	      0.14205813	      0.92030692	     -0.15818527	     13.33692236	     -1.41200043	    -10.88315194	      0.16747466	      8.26796948	     11.20688906	      0.00000000	    -23.70741639	      5.32935917	      9.20563244	     -6.61283464	     13.33761979	     -0.77524983	      0.00000000	    -28.43792211	     -3.36575171	     -8.35103626
      4.51000000	      5.54709520	      2.60663329	      4.95317295	      0.15552507	      0.92036953	     -0.15772199	     12.85987236	     -1.01149014	    -10.29994489	     -0.44952947	      6.93837669	      9.11298617	      0.00000000	    -23.68817452	      5.02151168	      8.29584620	     -8.40958466	     13.03616727	      0.44712525	      0.00000000	    -28.43656513	     -3.11450652	     -8.05131765
      4.52000000	      5.67964064	      2.28905307	      4.92119827	      0.16927896	      0.92064050	     -0.15719981	     12.31604768	     -0.47341176	     -9.24962242	     -1.01807755	      5.22387391	      6.49262652	      0.00000000	    -23.53966789	      4.60430995	      7.23858320	    -10.36743761	     12.42843450	      1.58800093	      0.00000000	    -28.34233462	     -2.75324337	     -7.66331735
      4.53000000	      5.79601871	      1.84281151	      4.86446601	      0.18315613	      0.92118683	     -0.15662104	     11.74687340	      0.20159491	     -7.94538797	     -1.55740378	      3.32924592	      3.69430207	      0.00000000	    -23.24839834	      4.04074630	      6.19116524	    -12.49668165	     11.52994282	      2.73175566	      0.00000000	    -28.19942872	     -2.26052950	     -7.20001000
      4.54000000	      5.90656101	      1.27791680	      4.74769737	      0.19711760	      0.92201971	     -0.15598070	     11.15756777	      1.00082944	     -6.42527795	     -2.07406905	      1.55103764	      0.96307111	      0.00000000	    -22.80184702	      3.35186186	      5.05978251	    -14.82616254	     10.28773653	      3.88048884	      0.00000000	    -28.03035117	     -1.64897401	     -6.64559623
